<?xml version="1.0" encoding="UTF-8"?>
<svg version="1.1" xmlns="http://www.w3.org/2000/svg" width="440" height="440">
<path d="M0 0 C145.2 0 290.4 0 440 0 C440 145.2 440 290.4 440 440 C294.8 440 149.6 440 0 440 C0 294.8 0 149.6 0 0 Z " fill="#1f1f1f" transform="translate(0,0)"/>
<path d="M0 0 C19.50292501 1.77299318 35.16330174 8.16565288 50 21 C50.67933594 21.58265625 51.35867188 22.1653125 52.05859375 22.765625 C62.19884822 32.15097119 68.58701932 44.06851972 73 57 C73.54721993 58.23604502 74.10699552 59.46673323 74.6875 60.6875 C82.51424092 80.44070327 78.22313781 103.90911466 70.3984375 122.94921875 C63.86790161 137.19600235 54.52250447 148.80667698 41 157 C40.34 157 39.68 157 39 157 C39 157.66 39 158.32 39 159 C39.98742187 159.08507812 40.97484375 159.17015625 41.9921875 159.2578125 C46.50625142 159.91304327 50.14116455 161.72404921 54.125 163.875 C54.86564697 164.27428711 55.60629395 164.67357422 56.36938477 165.08496094 C75.78670694 175.9320663 90.08090116 194.11213616 96.4375 215.4375 C103.88931962 243.20638834 99.03935852 274.22448808 85.11669922 299.0859375 C69.80869539 325.32440493 46.02675137 341.92589215 17 350 C13 351 13 351 0 351 C0 329.55 0 308.1 0 286 C4.62 284.02 9.24 282.04 14 280 C24.68175271 272.75605276 32.35456687 262.35398 35.58984375 249.69140625 C37.74809063 235.52919575 35.61540251 222.15957273 28 210 C21.49899587 201.56391437 15.04512421 195.35516753 4.75 192.375 C3.85796875 192.11460937 2.9659375 191.85421875 2.046875 191.5859375 C1.37140625 191.39257812 0.6959375 191.19921875 0 191 C-0.20300798 183.13505199 -0.3430087 175.27078021 -0.43945312 167.40380859 C-0.47514898 164.7274307 -0.534203 162.05447375 -0.60351562 159.37841797 C-0.70067845 155.53048422 -0.74595737 151.68487493 -0.78125 147.8359375 C-0.82254028 146.64197357 -0.86383057 145.44800964 -0.90637207 144.21786499 C-0.91076617 136.06805161 -0.91076617 136.06805161 1.72436523 132.97784424 C3.74955224 131.46301782 5.80538428 130.24921078 8 129 C15.62677486 122.23919586 19.82110847 112.64239654 20.515625 102.5859375 C20.94746384 89.9017512 19.92980388 78.96909359 11.71875 68.7890625 C8.31772393 65.24890355 4.39775295 62.19887647 0 60 C0 40.2 0 20.4 0 0 Z " fill="#00ffe7" transform="translate(327,38)"/>
<path d="M0 0 C10.56 0 21.12 0 32 0 C32 116.16 32 232.32 32 352 C21.44 352 10.88 352 0 352 C0 235.84 0 119.68 0 0 Z " fill="#00ffe7" transform="translate(26,38)"/>
<path d="M0 0 C6.27 0 12.54 0 19 0 C19 116.16 19 232.32 19 352 C12.73 352 6.46 352 0 352 C0 235.84 0 119.68 0 0 Z " fill="#00ffe7" transform="translate(162,38)"/>
<path d="M0 0 C4.95 0 9.9 0 15 0 C15 116.16 15 232.32 15 352 C10.05 352 5.1 352 0 352 C0 235.84 0 119.68 0 0 Z " fill="#00ffe7" transform="translate(224,38)"/>
<path d="M0 0 C4.95 0 9.9 0 15 0 C15 116.16 15 232.32 15 352 C10.05 352 5.1 352 0 352 C0 235.84 0 119.68 0 0 Z " fill="#00ffe7" transform="translate(78,38)"/>
<path d="M0 0 C4.95 0 9.9 0 15 0 C15 105.93 15 211.86 15 321 C10.05 321 5.1 321 0 321 C0 215.07 0 109.14 0 0 Z " fill="#00ffe7" transform="translate(197,38)"/>
<path d="M0 0 C4.95 0 9.9 0 15 0 C15 105.93 15 211.86 15 321 C10.05 321 5.1 321 0 321 C0 215.07 0 109.14 0 0 Z " fill="#00ffe7" transform="translate(133,38)"/>
<path d="M0 0 C4.62 0 9.24 0 14 0 C14 97.02 14 194.04 14 294 C9.38 294 4.76 294 0 294 C0 196.98 0 99.96 0 0 Z " fill="#00ffe7" transform="translate(105,38)"/>
<path d="M0 0 C5.94 0 11.88 0 18 0 C18 21.12 18 42.24 18 64 C12.06 64 6.12 64 0 64 C0 42.88 0 21.76 0 0 Z " fill="#00ffe7" transform="translate(252,326)"/>
<path d="M0 0 C5.94 0 11.88 0 18 0 C18 17.82 18 35.64 18 54 C12.06 54 6.12 54 0 54 C0 36.18 0 18.36 0 0 Z " fill="#00ffe7" transform="translate(252,38)"/>
<path d="M0 0 C5.94 0 11.88 0 18 0 C18 15.18 18 30.36 18 46 C12.06 46 6.12 46 0 46 C0 30.82 0 15.64 0 0 Z " fill="#00ffe7" transform="translate(252,180)"/>
<path d="M0 0 C3.63 0 7.26 0 11 0 C11 21.12 11 42.24 11 64 C7.37 64 3.74 64 0 64 C0 42.88 0 21.76 0 0 Z " fill="#00ffe7" transform="translate(302,326)"/>
<path d="M0 0 C3.3 0 6.6 0 10 0 C10 21.12 10 42.24 10 64 C6.7 64 3.4 64 0 64 C0 42.88 0 21.76 0 0 Z " fill="#00ffe7" transform="translate(281,326)"/>
<path d="M0 0 C3.63 0 7.26 0 11 0 C11 17.82 11 35.64 11 54 C7.37 54 3.74 54 0 54 C0 36.18 0 18.36 0 0 Z " fill="#00ffe7" transform="translate(302,38)"/>
<path d="M0 0 C3.3 0 6.6 0 10 0 C10 17.82 10 35.64 10 54 C6.7 54 3.4 54 0 54 C0 36.18 0 18.36 0 0 Z " fill="#00ffe7" transform="translate(281,38)"/>
<path d="M0 0 C3.63 0 7.26 0 11 0 C11 15.51 11 31.02 11 47 C7.37 47 3.74 47 0 47 C0 31.49 0 15.98 0 0 Z " fill="#00ffe7" transform="translate(302,179)"/>
<path d="M0 0 C3.3 0 6.6 0 10 0 C10 15.51 10 31.02 10 47 C6.7 47 3.4 47 0 47 C0 31.49 0 15.98 0 0 Z " fill="#00ffe7" transform="translate(281,179)"/>
</svg>
