<svg version="1.1" id="Layer_1" xmlns="http://www.w3.org/2000/svg" xmlns:xlink="http://www.w3.org/1999/xlink" x="0px" y="0px"
	 width="100%" viewBox="0 0 440 440" enable-background="new 0 0 440 440" xml:space="preserve">
<path fill="#273849" opacity="1.000000" stroke="none" 
	d="
M1.000000,163.000000 
	C1.000000,108.666687 1.000000,54.833378 1.000000,1.000051 
	C147.666580,1.000034 294.333160,1.000034 440.999817,1.000017 
	C440.999878,147.666519 440.999878,294.333038 440.999939,440.999695 
	C294.333527,440.999786 147.667084,440.999786 1.000309,440.999878 
	C1.000000,348.500000 1.000000,256.000000 1.000000,163.000000 
M291.229645,180.671631 
	C288.301178,180.671631 285.372711,180.671631 282.350677,180.671631 
	C282.350677,196.374481 282.350677,211.550140 282.350677,226.710861 
	C285.783539,226.710861 288.848328,226.710861 292.354797,226.710861 
	C292.354797,221.600342 292.354797,216.807251 292.958862,212.266846 
	C296.243927,214.179886 299.528992,216.092926 302.975861,218.905228 
	C302.975861,221.500854 302.975861,224.096481 302.975861,227.609390 
	C307.127594,227.001389 310.551971,226.499908 314.698975,225.956924 
	C316.165405,225.391571 317.631805,224.826218 318.238617,224.592270 
	C320.699219,226.946442 322.342621,229.709915 324.651917,230.482132 
	C329.574371,232.128159 332.261902,235.315735 334.152039,239.833786 
	C336.388489,245.179596 339.682007,249.389557 345.575104,251.555862 
	C348.795563,252.739700 351.337616,255.698883 354.288940,257.705475 
	C357.042786,259.577850 359.933319,261.249176 363.103790,263.739594 
	C366.771942,275.372986 365.633423,286.762787 360.793274,297.736328 
	C354.433075,312.156219 342.918915,320.806366 327.802765,325.362152 
	C327.802765,334.750580 327.802765,343.872040 327.042908,352.911346 
	C326.361755,351.606445 325.427246,350.369629 325.054260,348.981934 
	C324.365479,346.419373 324.006012,343.768341 323.262543,339.855347 
	C321.028534,342.582733 319.829193,344.046906 318.684814,345.444000 
	C316.935669,344.924042 315.392975,344.465454 313.630554,343.092804 
	C313.630554,337.817902 313.630554,332.542969 313.630554,327.327942 
	C309.685425,327.327942 306.462891,327.327942 303.440002,327.327942 
	C303.440002,348.718140 303.440002,369.727417 303.440002,390.619476 
	C306.999512,390.619476 310.089691,390.619476 313.939728,390.619476 
	C313.939728,383.223297 313.939728,376.110474 314.680176,368.969208 
	C319.080048,367.547638 320.802338,369.691254 320.960144,373.766785 
	C321.023865,375.412109 321.037903,377.089203 320.798859,378.711212 
	C319.759796,385.761200 320.643097,386.874084 327.834961,387.764130 
	C327.469238,391.159760 329.752136,390.441071 331.721832,390.299530 
	C359.488403,388.304596 381.876343,375.665833 400.138947,355.262451 
	C421.754486,331.113129 430.106903,302.350769 426.602325,270.606445 
	C422.746033,235.676132 404.420288,211.031601 370.818054,198.701050 
	C369.654968,198.274277 368.566895,197.643219 367.065430,196.926819 
	C368.292969,196.045013 369.060638,195.447311 369.872406,194.917130 
	C391.318176,180.910919 401.998779,160.525925 405.181427,135.619507 
	C407.446991,117.889801 403.896088,101.197334 397.396149,85.044838 
	C401.948914,84.233162 402.006195,80.814636 401.558929,77.406921 
	C401.214691,74.784248 400.397308,72.214981 399.685669,69.651009 
	C398.142212,64.090111 394.703857,60.920246 388.901855,61.150356 
	C383.584839,61.361233 380.760498,58.576843 377.829132,54.924099 
	C376.142426,52.822327 373.752930,51.158241 371.408936,49.746998 
	C369.212250,48.424461 367.990417,49.619820 367.300720,51.909275 
	C355.326355,44.456341 342.587524,39.424957 328.200653,39.002003 
	C328.037018,41.375805 327.912262,43.185181 327.086273,44.958775 
	C325.576782,44.435349 324.067322,43.911922 322.244476,43.279835 
	C319.787262,46.531406 322.198792,54.707268 313.714020,51.100277 
	C313.635590,48.134689 313.782471,45.137268 313.370148,42.218853 
	C313.200317,41.016850 311.828003,39.984741 310.839386,38.290249 
	C309.891632,38.467770 308.943909,38.645290 307.201080,38.974243 
	C305.853638,39.003952 304.506226,39.033661 302.402710,38.992329 
	C301.801941,38.746811 301.162720,38.567223 300.607605,38.243435 
	C298.927094,37.263214 297.279205,36.227097 295.618622,35.212769 
	C295.079071,37.141594 294.539551,39.070419 293.555756,41.212353 
	C293.134155,41.467415 292.712555,41.722473 292.099609,41.136131 
	C291.260681,40.453991 290.478149,39.288471 289.571960,39.182755 
	C287.114258,38.896027 284.604126,39.058788 281.406097,38.906063 
	C278.858643,37.399994 276.410919,36.383751 273.957001,39.237679 
	C273.437683,39.841667 272.121674,39.760658 270.573273,39.362705 
	C264.730835,39.247337 258.888397,39.131966 252.237396,38.995548 
	C248.243652,39.429977 244.249893,39.864410 239.850830,39.630901 
	C234.947205,39.511925 230.043579,39.392948 224.823044,38.599960 
	C220.803345,32.244663 217.034821,32.361271 211.066772,39.024944 
	C206.623383,39.024944 202.179977,39.024944 197.191605,39.024944 
	C197.191605,50.713360 197.191605,61.860840 196.423508,73.052704 
	C194.793549,75.253761 193.163605,77.454826 190.854080,80.573578 
	C189.113922,77.172401 187.703156,74.133324 186.030212,71.246147 
	C184.949402,69.380913 183.484619,67.738174 182.017868,65.073318 
	C182.017868,56.505661 182.017868,47.938007 182.017868,39.101265 
	C175.197754,39.101265 169.229996,39.101265 162.556717,39.217216 
	C160.216629,40.940948 160.300354,42.536522 162.971802,44.743828 
	C162.904251,45.493954 162.836716,46.244076 162.007736,46.985081 
	C157.733246,45.988438 153.458755,44.991798 148.992752,43.149910 
	C148.268692,41.800621 147.655212,39.373360 146.801712,39.285812 
	C142.779953,38.873283 138.692413,39.102051 134.280777,39.102051 
	C134.280777,43.440575 134.294159,47.077114 134.278519,50.713528 
	C134.200668,68.809380 134.115189,86.905182 133.283981,105.033745 
	C132.409836,105.415909 130.933746,105.616371 130.755020,106.208466 
	C129.042252,111.882492 124.500664,111.040642 120.105644,110.068405 
	C120.105644,86.501083 120.105644,62.933758 120.105644,39.357666 
	C114.954826,39.357666 110.691307,39.357666 106.521988,39.357666 
	C106.521988,137.316177 106.521988,235.002686 106.521988,332.653687 
	C111.269035,332.653687 115.535988,332.653687 120.144356,332.653687 
	C120.144356,330.090851 120.140137,327.785217 120.144997,325.479553 
	C120.204308,297.323151 120.264961,269.166748 121.052658,241.001846 
	C122.115219,240.655853 123.641403,240.638428 124.159843,239.906845 
	C126.371071,236.786621 128.451981,236.084915 131.207916,239.275223 
	C131.722855,239.871307 133.037186,239.776840 134.178909,240.920288 
	C134.178909,280.483704 134.178909,320.047119 134.178909,359.743652 
	C139.376328,359.743652 144.061386,359.743652 149.241440,359.743652 
	C149.241440,343.585083 149.241440,327.796631 150.103851,312.006134 
	C150.926422,312.003967 151.749023,312.005737 152.571564,311.999084 
	C158.831787,311.948395 161.524567,307.596741 158.822693,302.020691 
	C156.665359,297.568451 152.606659,299.428925 149.060104,298.069855 
	C149.113098,276.048492 149.166077,254.027145 149.988876,232.004395 
	C155.877060,231.409653 158.998749,227.967514 158.934525,221.244522 
	C158.851196,212.520248 158.156708,203.801544 158.086212,195.077530 
	C158.056442,191.393417 158.102875,187.272324 162.934845,186.615448 
	C162.926346,254.854294 162.917831,323.093140 163.156342,392.029510 
	C168.610901,392.867096 174.052063,393.842743 179.536270,394.374512 
	C180.253586,394.444061 181.191803,392.235321 181.957153,390.136505 
	C181.953430,330.217468 181.926758,270.298401 181.956482,210.379364 
	C181.969604,183.920959 182.097092,157.462616 182.958466,131.002029 
	C184.388718,130.211502 186.653427,129.735992 187.093063,128.571457 
	C188.422195,125.050804 189.492981,121.303261 189.828979,117.568970 
	C190.273285,112.630943 186.862854,109.214119 181.982559,108.075920 
	C182.046310,102.718727 182.110046,97.361534 182.901962,91.994637 
	C185.913925,89.505432 188.925888,87.016235 191.540634,84.855293 
	C193.549713,86.298882 195.377106,87.611923 197.456497,89.700333 
	C197.383408,93.460976 197.310333,97.221619 196.708771,101.346680 
	C195.821335,103.060036 194.275162,104.733482 194.168488,106.494148 
	C193.832474,112.040970 193.834885,117.632957 194.176605,123.178482 
	C194.259918,124.530548 196.143539,125.771667 197.439377,127.909782 
	C197.358459,132.301605 197.277542,136.693436 196.657486,140.698700 
	C195.968231,140.454559 194.844742,139.818237 194.656525,140.026642 
	C192.655518,142.242203 194.297668,147.878326 197.412872,149.894516 
	C197.412872,219.877426 197.412872,289.860352 197.412872,360.140594 
	C201.998337,360.140594 205.831940,360.385712 209.599960,359.996277 
	C210.782196,359.874084 211.788055,358.045197 213.670135,356.992218 
	C217.718948,357.320160 219.254028,354.558716 220.827911,351.510773 
	C221.863251,349.505859 223.528915,347.826416 225.089600,346.923645 
	C225.089600,361.491394 225.089600,376.059113 225.089600,390.576782 
	C230.419540,390.576782 235.131577,390.576782 239.996643,390.576782 
	C239.996643,388.528290 239.993057,386.875824 239.997192,385.223358 
	C240.070694,355.817230 240.145111,326.411102 240.909317,296.689453 
	C242.319016,292.696747 243.420547,288.721832 240.069565,284.070770 
	C240.133194,257.382568 240.196823,230.694382 240.932922,203.691040 
	C242.284088,200.347260 243.321976,197.025589 240.081757,193.070694 
	C240.134232,181.715668 240.186722,170.360641 240.933273,158.678467 
	C241.281326,157.794662 241.927841,156.912460 241.932541,156.026825 
	C242.001099,143.096344 242.024506,130.165039 241.913574,117.235191 
	C241.904266,116.149757 240.854904,115.073250 240.117966,113.070244 
	C240.152893,104.048485 240.187820,95.026718 240.915298,85.685486 
	C242.276245,81.370247 243.324921,77.071701 240.068695,72.096352 
	C240.125290,65.308510 240.181885,58.520672 241.081512,51.842014 
	C245.000214,51.740246 248.171341,46.934742 252.779556,50.795143 
	C252.714279,51.859840 252.649002,52.924538 251.927704,54.357544 
	C251.628922,55.094940 251.074371,55.830795 251.069916,56.569973 
	C251.007156,66.957474 250.970963,77.345940 251.084412,87.732468 
	C251.096405,88.830475 252.094208,89.917709 252.811020,91.610764 
	C253.299072,92.167572 253.787125,92.724388 254.165146,94.126846 
	C254.707397,95.279518 255.249634,96.432198 255.791885,97.584869 
	C256.440552,96.136757 257.089203,94.688637 258.562073,93.058914 
	C262.645935,93.058914 266.729828,93.058914 271.219391,93.058914 
	C271.219391,82.611664 271.219391,72.808777 271.967468,63.012486 
	C275.236420,64.010361 278.505402,65.008240 281.951080,66.927788 
	C281.971405,71.690956 281.872040,76.458572 282.048920,81.215919 
	C282.197510,85.212341 282.667908,89.196800 283.051666,93.575989 
	C283.369354,93.454247 283.687012,93.332504 284.875183,93.040848 
	C287.238312,92.993965 289.601410,92.947075 292.254822,93.559265 
	C294.871002,99.794357 297.151062,100.204193 302.167572,95.370537 
	C302.613892,94.940468 303.155975,94.444427 303.723846,94.331139 
	C310.102264,93.058556 318.300812,96.602928 321.386810,102.276901 
	C322.715210,104.719337 323.354034,107.547554 324.220062,110.228317 
	C325.609253,114.528496 328.625702,116.883400 332.765747,118.527992 
	C335.817566,119.740318 338.352570,122.205803 341.351440,123.616142 
	C343.392120,124.575882 345.836578,124.677139 348.173553,125.786224 
	C348.075592,125.971283 347.977600,126.156349 347.316620,126.941544 
	C345.701569,129.263702 345.586945,131.136475 348.975372,132.926331 
	C350.358185,146.886169 346.648773,159.586624 335.809479,168.322739 
	C329.448730,173.449280 326.906769,178.470947 327.087372,185.928970 
	C326.458008,185.476822 325.362122,185.102539 325.271637,184.560471 
	C324.395355,179.309814 320.927612,179.565353 317.048706,180.474243 
	C315.929993,180.736374 314.775146,180.844330 313.082275,180.475983 
	C309.803436,180.475983 306.524597,180.475983 303.246338,180.475983 
	C303.081879,183.142456 302.963104,185.068359 302.099976,186.923935 
	C301.395416,185.845627 300.238831,184.831558 300.074677,183.676483 
	C299.653870,180.714676 298.390350,179.699905 295.482574,180.625565 
	C294.437012,180.958450 293.254181,180.860336 291.229645,180.671631 
M265.248535,228.024933 
	C266.171204,229.174072 267.234650,231.383575 267.991455,231.283127 
	C270.806244,230.909454 274.525879,230.576523 276.005646,228.716522 
	C277.679932,226.612000 277.836945,222.821381 277.504120,219.894669 
	C277.405914,219.031204 273.411591,218.610794 271.033539,217.065216 
	C271.033539,204.995041 271.033539,192.924866 271.033539,180.847656 
	C264.670746,180.847656 258.941559,180.847656 253.180084,180.847656 
	C253.180084,196.320099 253.180084,211.496674 253.180084,227.205658 
	C257.483643,227.205658 261.435394,227.205658 265.248535,228.024933 
M78.821671,356.929230 
	C78.821671,368.172699 78.821671,379.416199 78.821671,390.581970 
	C84.318420,390.581970 88.904114,390.581970 93.634018,390.581970 
	C93.634018,273.386536 93.634018,156.514557 93.634018,39.347874 
	C88.564774,39.347874 83.840309,39.347874 78.667076,39.347874 
	C78.667076,60.399948 78.667076,81.196022 77.991753,101.933067 
	C73.348846,95.157524 64.974457,94.374931 58.606831,89.118591 
	C58.688999,86.077698 58.771168,83.036812 59.589863,79.961441 
	C62.190575,78.308006 65.001244,76.890839 67.275444,74.869980 
	C68.047066,74.184319 68.036514,71.005852 67.401009,70.630707 
	C64.765541,69.074974 61.754406,68.155647 58.658848,66.087715 
	C58.658848,57.161686 58.658848,48.235661 58.658848,39.267609 
	C47.703552,39.267609 37.604939,39.267609 27.064806,39.267609 
	C27.064806,40.978325 27.064426,42.429050 27.064861,43.879776 
	C27.097366,152.267441 27.135864,260.655090 27.148727,369.042755 
	C27.149557,376.028290 26.952677,383.013794 26.200258,390.126495 
	C25.405401,391.461823 23.633688,393.169586 23.977324,394.070831 
	C25.924477,399.177704 38.444279,403.128876 43.485516,400.753174 
	C45.811832,399.656921 48.399910,398.657288 50.919579,398.517090 
	C58.190472,398.112396 59.207783,397.238434 58.470810,389.502991 
	C58.586536,387.666718 58.702259,385.830414 59.564766,383.955658 
	C61.112320,382.280670 62.659874,380.605682 63.305374,379.907043 
	C67.617844,380.339722 72.106514,382.151611 74.776878,380.675079 
	C77.447044,379.198578 76.589241,374.623596 74.871582,372.383331 
	C70.625763,373.254883 67.127083,373.973053 63.536266,374.710175 
	C63.137245,370.138123 66.091866,366.682190 71.238136,366.184540 
	C75.349503,365.786957 76.006409,363.839355 76.137856,360.372437 
	C76.194107,358.888733 77.757996,357.462219 78.821671,356.929230 
M252.811707,328.698059 
	C252.811707,349.305878 252.811707,369.913696 252.811707,390.657928 
	C259.031586,390.657928 264.764099,390.657928 270.618256,390.657928 
	C270.618256,369.329865 270.618256,348.310272 270.618256,326.777374 
	C264.459778,327.115784 258.723663,327.430969 252.811707,328.698059 
M281.937469,350.500000 
	C281.937469,363.880371 281.937469,377.260742 281.937469,390.615021 
	C285.666779,390.615021 288.607605,390.615021 291.739166,390.615021 
	C291.739166,369.374969 291.739166,348.363403 291.739166,327.304352 
	C288.336304,327.304352 285.270905,327.304352 281.937805,327.304352 
	C281.937805,334.906403 281.937805,342.203217 281.937469,350.500000 
M71.509193,434.702515 
	C72.200798,433.693359 72.892410,432.684204 73.584007,431.675049 
	C72.948532,431.292755 72.313057,430.910461 71.677582,430.528168 
	C71.405037,431.845581 71.132500,433.163025 71.509193,434.702515 
M151.600250,35.976135 
	C151.227539,35.423626 150.854828,34.871117 150.482117,34.318600 
	C150.172073,34.613400 149.862030,34.908203 149.552002,35.203011 
	C150.105515,35.596317 150.659042,35.989624 151.600250,35.976135 
M195.226288,135.584320 
	C195.054016,135.829208 194.881744,136.074097 194.709473,136.319016 
	C194.964447,136.162445 195.219421,136.005890 195.226288,135.584320 
z"/>
<path fill="#FBFBFB" opacity="1.000000" stroke="none" 
	d="
M327.809235,185.993820 
	C326.906769,178.470947 329.448730,173.449280 335.809479,168.322739 
	C346.648773,159.586624 350.358185,146.886169 348.999786,132.166290 
	C348.642670,129.717972 348.261139,128.029694 347.879578,126.341415 
	C347.977600,126.156349 348.075592,125.971283 348.206970,125.146500 
	C345.898285,119.670532 343.556213,114.834297 341.119415,109.656754 
	C337.400696,106.056152 333.776733,102.796875 329.858551,99.288101 
	C329.043274,97.457062 328.085785,95.880310 328.068329,94.293221 
	C327.887726,77.861290 327.858704,61.427689 327.787537,44.994553 
	C327.912262,43.185181 328.037018,41.375805 328.200653,39.002003 
	C342.587524,39.424957 355.326355,44.456341 367.810730,52.280430 
	C380.552551,61.028828 389.644379,72.139694 396.587708,85.120949 
	C403.896088,101.197334 407.446991,117.889801 405.181427,135.619507 
	C401.998779,160.525925 391.318176,180.910919 369.872406,194.917130 
	C369.060638,195.447311 368.292969,196.045013 367.065430,196.926819 
	C368.566895,197.643219 369.654968,198.274277 370.818054,198.701050 
	C404.420288,211.031601 422.746033,235.676132 426.602325,270.606445 
	C430.106903,302.350769 421.754486,331.113129 400.138947,355.262451 
	C381.876343,375.665833 359.488403,388.304596 331.721832,390.299530 
	C329.752136,390.441071 327.469238,391.159760 327.842285,386.927979 
	C327.833984,375.059052 327.818359,364.026245 327.802765,352.993469 
	C327.802765,343.872040 327.802765,334.750580 327.802765,325.362152 
	C342.918915,320.806366 354.433075,312.156219 360.793274,297.736328 
	C365.633423,286.762787 366.771942,275.372986 362.922028,263.017120 
	C356.708649,245.474777 345.689392,233.808182 327.809235,228.921021 
	C327.809235,214.563568 327.809235,200.278702 327.809235,185.993820 
z"/>
<path fill="#F8F8F8" opacity="1.000000" stroke="none" 
	d="
M26.847767,389.999329 
	C26.952677,383.013794 27.149557,376.028290 27.148727,369.042755 
	C27.135864,260.655090 27.097366,152.267441 27.064861,43.879776 
	C27.064426,42.429050 27.064806,40.978325 27.064806,39.267609 
	C37.604939,39.267609 47.703552,39.267609 58.658848,39.267609 
	C58.658848,48.235661 58.658848,57.161686 58.656517,66.996338 
	C58.720570,71.935280 58.786957,75.965599 58.853340,79.995918 
	C58.771168,83.036812 58.688999,86.077698 58.598183,90.016220 
	C58.675919,106.941643 58.762299,122.969437 58.736877,139.454193 
	C58.700317,145.942184 58.775555,151.973206 58.737141,158.460724 
	C58.699787,169.610123 58.776089,180.303009 58.738678,191.403030 
	C58.701469,193.208115 58.777973,194.606094 58.741322,196.460678 
	C58.698421,206.943283 58.768677,216.969269 58.724129,227.441818 
	C58.682632,231.260681 58.755943,234.632980 58.710251,238.456573 
	C58.672562,243.270294 58.753876,247.632706 58.720898,252.402298 
	C58.685654,254.207687 58.764702,255.605911 58.727615,257.460114 
	C58.683182,266.275604 58.754875,274.635132 58.710194,283.451233 
	C58.676880,303.939484 58.759937,323.971130 58.722252,344.457886 
	C58.673668,357.940063 58.745823,370.967102 58.817986,383.994141 
	C58.702259,385.830414 58.586536,387.666718 58.210747,390.126495 
	C48.931835,390.833038 39.912960,390.958832 30.894167,390.952820 
	C29.545156,390.951935 28.196558,390.332581 26.847767,389.999329 
z"/>
<path fill="#FBFBFB" opacity="1.000000" stroke="none" 
	d="
M162.909332,391.331970 
	C162.917831,323.093140 162.926346,254.854294 162.939102,185.745331 
	C162.959686,154.897430 163.003448,124.919632 162.981232,94.941895 
	C162.969391,78.959290 162.843552,62.976765 162.769165,46.994202 
	C162.836716,46.244076 162.904251,45.493954 162.990860,43.974228 
	C163.094025,41.836842 163.178146,40.469051 163.262268,39.101265 
	C169.229996,39.101265 175.197754,39.101265 182.017868,39.101265 
	C182.017868,47.938007 182.017868,56.505661 182.011261,65.995239 
	C182.061035,75.279549 182.117416,83.641945 182.173798,92.004341 
	C182.110046,97.361534 182.046310,102.718727 181.981567,108.997452 
	C182.044601,116.947411 182.108627,123.975822 182.172653,131.004242 
	C182.097092,157.462616 181.969604,183.920959 181.956482,210.379364 
	C181.926758,270.298401 181.953430,330.217468 181.541870,390.755951 
	C175.054153,391.360931 168.981750,391.346466 162.909332,391.331970 
z"/>
<path fill="#F9F9F9" opacity="1.000000" stroke="none" 
	d="
M240.238495,51.732834 
	C240.181885,58.520672 240.125290,65.308510 240.063522,73.001572 
	C240.113144,77.939507 240.167938,81.972237 240.222733,86.004959 
	C240.187820,95.026718 240.152893,104.048485 240.111542,113.992599 
	C240.149826,129.611832 240.194519,144.308731 240.239227,159.005615 
	C240.186722,170.360641 240.134232,181.715668 240.075607,193.979767 
	C240.133118,197.927963 240.196793,200.967087 240.260452,204.006195 
	C240.196823,230.694382 240.133194,257.382568 240.059113,284.985779 
	C240.105560,289.602203 240.162460,293.303589 240.219345,297.004974 
	C240.145111,326.411102 240.070694,355.817230 239.997192,385.223358 
	C239.993057,386.875824 239.996643,388.528290 239.996643,390.576782 
	C235.131577,390.576782 230.419540,390.576782 225.089600,390.576782 
	C225.089600,376.059113 225.089600,361.491394 225.090179,346.001129 
	C225.107147,243.143738 225.123550,141.208847 225.139954,39.273972 
	C230.043579,39.392948 234.947205,39.511925 239.965500,40.395599 
	C240.132935,44.684475 240.185715,48.208652 240.238495,51.732834 
z"/>
<path fill="#FAFAFA" opacity="1.000000" stroke="none" 
	d="
M78.667076,101.992096 
	C78.667076,81.196022 78.667076,60.399948 78.667076,39.347874 
	C83.840309,39.347874 88.564774,39.347874 93.634018,39.347874 
	C93.634018,156.514557 93.634018,273.386536 93.634018,390.581970 
	C88.904114,390.581970 84.318420,390.581970 78.821671,390.581970 
	C78.821671,379.416199 78.821671,368.172699 78.826477,356.012939 
	C78.782890,350.730499 78.734489,346.364349 78.777100,341.537598 
	C78.806183,319.387085 78.744263,297.697205 78.778297,275.570374 
	C78.810524,272.753082 78.746796,270.372772 78.771851,267.531921 
	C78.871468,243.147644 78.914131,219.223892 78.883087,195.300247 
	C78.858307,176.200699 78.743774,157.101273 78.762711,137.541473 
	C78.793243,125.384804 78.730156,113.688454 78.667076,101.992096 
z"/>
<path fill="#F6F6F7" opacity="1.000000" stroke="none" 
	d="
M212.874664,356.997528 
	C211.788055,358.045197 210.782196,359.874084 209.599960,359.996277 
	C205.831940,360.385712 201.998337,360.140594 197.412872,360.140594 
	C197.412872,289.860352 197.412872,219.877426 197.416916,149.018051 
	C197.346176,145.789474 197.271393,143.437378 197.196625,141.085266 
	C197.277542,136.693436 197.358459,132.301605 197.453003,127.097771 
	C197.390167,117.851257 197.313705,109.416763 197.237244,100.982262 
	C197.310333,97.221619 197.383408,93.460976 197.457458,88.865440 
	C197.369476,83.023140 197.280548,78.015724 197.191620,73.008316 
	C197.191605,61.860840 197.191605,50.713360 197.191605,39.024944 
	C202.179977,39.024944 206.623383,39.024944 211.639282,39.469589 
	C212.253387,41.078148 212.330368,42.242023 212.331543,43.405972 
	C212.427231,138.290283 212.510147,233.174606 212.617737,328.058899 
	C212.628677,337.705200 212.785522,347.351318 212.874664,356.997528 
z"/>
<path fill="#F6F7F7" opacity="1.000000" stroke="none" 
	d="
M149.241440,312.008148 
	C149.241440,327.796631 149.241440,343.585083 149.241440,359.743652 
	C144.061386,359.743652 139.376328,359.743652 134.178909,359.743652 
	C134.178909,320.047119 134.178909,280.483704 134.184845,240.001953 
	C134.124359,227.388992 134.057953,215.694366 134.092575,203.540543 
	C134.134155,188.387604 134.074707,173.693848 134.121643,158.541931 
	C134.165894,150.722931 134.103775,143.362091 134.138519,135.580414 
	C134.150909,133.440048 134.066406,131.720535 134.084595,129.566040 
	C134.128677,126.754181 134.070053,124.377312 134.112793,121.672302 
	C134.149963,120.895798 134.085754,120.447433 134.132568,119.544388 
	C134.173187,114.393478 134.102783,109.697243 134.032379,105.001007 
	C134.115189,86.905182 134.200668,68.809380 134.278519,50.713528 
	C134.294159,47.077114 134.280777,43.440575 134.280777,39.102051 
	C138.692413,39.102051 142.779953,38.873283 146.801712,39.285812 
	C147.655212,39.373360 148.268692,41.800621 149.002243,44.034500 
	C149.020706,85.500038 149.011337,126.081009 149.046021,166.661942 
	C149.064636,188.443253 149.158920,210.224503 149.219055,232.005783 
	C149.166077,254.027145 149.113098,276.048492 149.056122,298.987305 
	C149.115250,303.939209 149.178345,307.973694 149.241440,312.008148 
z"/>
<path fill="#F9F9FA" opacity="1.000000" stroke="none" 
	d="
M120.325264,241.010330 
	C120.264961,269.166748 120.204308,297.323151 120.144997,325.479553 
	C120.140137,327.785217 120.144356,330.090851 120.144356,332.653687 
	C115.535988,332.653687 111.269035,332.653687 106.521988,332.653687 
	C106.521988,235.002686 106.521988,137.316177 106.521988,39.357666 
	C110.691307,39.357666 114.954826,39.357666 120.105644,39.357666 
	C120.105644,62.933758 120.105644,86.501083 120.101692,110.961884 
	C120.163612,113.905052 120.229485,115.954742 120.213593,118.466064 
	C120.186684,124.948708 120.241554,130.969742 120.205986,137.452118 
	C120.183372,144.612442 120.251205,151.311417 120.236176,158.471786 
	C120.213737,173.953934 120.274155,188.974686 120.244812,204.456619 
	C120.211784,216.948639 120.268524,228.979477 120.325264,241.010330 
z"/>
<path fill="#293A4B" opacity="1.000000" stroke="none" 
	d="
M213.272400,356.994873 
	C212.785522,347.351318 212.628677,337.705200 212.617737,328.058899 
	C212.510147,233.174606 212.427231,138.290283 212.331543,43.405972 
	C212.330368,42.242023 212.253387,41.078148 212.106476,39.455471 
	C217.034821,32.361271 220.803345,32.244663 224.981506,38.936966 
	C225.123550,141.208847 225.107147,243.143738 225.001526,345.539917 
	C223.528915,347.826416 221.863251,349.505859 220.827911,351.510773 
	C219.254028,354.558716 217.718948,357.320160 213.272400,356.994873 
z"/>
<path fill="#2B3C4D" opacity="1.000000" stroke="none" 
	d="
M149.603973,232.005096 
	C149.158920,210.224503 149.064636,188.443253 149.046021,166.661942 
	C149.011337,126.081009 149.020706,85.500038 149.097992,44.457123 
	C153.458755,44.991798 157.733246,45.988438 162.388458,46.989639 
	C162.843552,62.976765 162.969391,78.959290 162.981232,94.941895 
	C163.003448,124.919632 162.959686,154.897430 162.854919,185.296219 
	C158.102875,187.272324 158.056442,191.393417 158.086212,195.077530 
	C158.156708,203.801544 158.851196,212.520248 158.934525,221.244522 
	C158.998749,227.967514 155.877060,231.409653 149.603973,232.005096 
z"/>
<path fill="#2B3C4D" opacity="1.000000" stroke="none" 
	d="
M327.436890,44.976662 
	C327.858704,61.427689 327.887726,77.861290 328.068329,94.293221 
	C328.085785,95.880310 329.043274,97.457062 329.868256,99.685776 
	C330.678650,107.181015 335.306641,109.320435 341.214142,109.998062 
	C343.556213,114.834297 345.898285,119.670532 348.170410,124.834518 
	C345.836578,124.677139 343.392120,124.575882 341.351440,123.616142 
	C338.352570,122.205803 335.817566,119.740318 332.765747,118.527992 
	C328.625702,116.883400 325.609253,114.528496 324.220062,110.228317 
	C323.354034,107.547554 322.715210,104.719337 321.386810,102.276901 
	C318.300812,96.602928 310.102264,93.058556 303.723846,94.331139 
	C303.155975,94.444427 302.613892,94.940468 302.167572,95.370537 
	C297.151062,100.204193 294.871002,99.794357 292.125305,92.861404 
	C292.087036,91.436462 292.178284,90.709389 292.610565,89.812546 
	C293.300201,87.921722 293.941681,86.202309 293.951385,84.479340 
	C294.033112,69.986343 293.999146,55.492691 294.000000,40.999237 
	C294.539551,39.070419 295.079071,37.141594 295.618591,35.212765 
	C297.279205,36.227097 298.927094,37.263214 300.607605,38.243435 
	C301.162720,38.567223 301.801941,38.746811 302.747955,39.491470 
	C303.093201,57.578289 303.093201,75.165970 303.093201,92.932404 
	C306.841125,92.932404 309.968506,92.932404 313.914551,92.932404 
	C313.914551,79.219856 313.914551,65.611183 313.914551,52.002510 
	C322.198792,54.707268 319.787262,46.531406 322.244476,43.279835 
	C324.067322,43.911922 325.576782,44.435349 327.436890,44.976662 
z"/>
<path fill="#FBFBFB" opacity="1.000000" stroke="none" 
	d="
M252.899628,328.222107 
	C258.723663,327.430969 264.459778,327.115784 270.618256,326.777374 
	C270.618256,348.310272 270.618256,369.329865 270.618256,390.657928 
	C264.764099,390.657928 259.031586,390.657928 252.811707,390.657928 
	C252.811707,369.913696 252.811707,349.305878 252.899628,328.222107 
z"/>
<path fill="#2D3D4D" opacity="1.000000" stroke="none" 
	d="
M327.448303,185.961395 
	C327.809235,200.278702 327.809235,214.563568 327.809235,228.921021 
	C345.689392,233.808182 356.708649,245.474777 362.751984,262.651825 
	C359.933319,261.249176 357.042786,259.577850 354.288940,257.705475 
	C351.337616,255.698883 348.795563,252.739700 345.575104,251.555862 
	C339.682007,249.389557 336.388489,245.179596 334.152039,239.833786 
	C332.261902,235.315735 329.574371,232.128159 324.651917,230.482132 
	C322.342621,229.709915 320.699219,226.946442 318.238617,224.592270 
	C317.631805,224.826218 316.165405,225.391571 314.224945,225.520874 
	C313.712891,210.397552 313.674896,195.710266 313.636871,181.022980 
	C314.775146,180.844330 315.929993,180.736374 317.048706,180.474243 
	C320.927612,179.565353 324.395355,179.309814 325.271637,184.560471 
	C325.362122,185.102539 326.458008,185.476822 327.448303,185.961395 
z"/>
<path fill="#FBFBFB" opacity="1.000000" stroke="none" 
	d="
M271.219391,63.005890 
	C271.219391,72.808777 271.219391,82.611664 271.219391,93.058914 
	C266.729828,93.058914 262.645935,93.058914 257.809448,93.064339 
	C256.129639,93.140244 255.202408,93.210724 254.275177,93.281204 
	C253.787125,92.724388 253.299072,92.167572 252.819885,90.850006 
	C252.747070,78.055916 252.665390,66.022575 252.583710,53.989235 
	C252.649002,52.924538 252.714279,51.859840 252.787216,49.954506 
	C252.878571,45.748116 252.962265,42.382355 253.045959,39.016598 
	C258.888397,39.131966 264.730835,39.247337 270.803345,40.125557 
	C271.096863,43.593807 271.160339,46.299210 271.136353,49.397976 
	C271.108429,50.859173 271.167908,51.927002 271.134949,53.441620 
	C271.101471,56.927570 271.160431,59.966732 271.219391,63.005890 
z"/>
<path fill="#2A3B4C" opacity="1.000000" stroke="none" 
	d="
M78.329414,101.962585 
	C78.730156,113.688454 78.793243,125.384804 78.428177,137.569626 
	C76.042557,138.722946 73.721519,140.405609 72.196175,139.860764 
	C67.719398,138.261597 63.507847,136.419479 58.848682,138.997223 
	C58.762299,122.969437 58.675919,106.941643 58.711754,90.459213 
	C64.974457,94.374931 73.348846,95.157524 78.329414,101.962585 
z"/>
<path fill="#FBFBFB" opacity="1.000000" stroke="none" 
	d="
M265.387177,227.205658 
	C261.435394,227.205658 257.483643,227.205658 253.180084,227.205658 
	C253.180084,211.496674 253.180084,196.320099 253.180084,180.847656 
	C258.941559,180.847656 264.670746,180.847656 271.033539,180.847656 
	C271.033539,192.924866 271.033539,204.995041 271.024841,217.888580 
	C271.016174,221.343018 271.016174,223.974106 271.016174,226.764877 
	C268.937256,226.927673 267.162231,227.066666 265.387177,227.205658 
z"/>
<path fill="#F3F4F4" opacity="1.000000" stroke="none" 
	d="
M313.939728,368.997681 
	C313.939728,376.110474 313.939728,383.223297 313.939728,390.619476 
	C310.089691,390.619476 306.999512,390.619476 303.440002,390.619476 
	C303.440002,369.727417 303.440002,348.718140 303.440002,327.327942 
	C306.462891,327.327942 309.685425,327.327942 313.630554,327.327942 
	C313.630554,332.542969 313.630554,337.817902 313.626404,344.006165 
	C313.728088,352.945587 313.833923,360.971649 313.939728,368.997681 
z"/>
<path fill="#F9F9F9" opacity="1.000000" stroke="none" 
	d="
M281.937622,350.000000 
	C281.937805,342.203217 281.937805,334.906403 281.937805,327.304352 
	C285.270905,327.304352 288.336304,327.304352 291.739166,327.304352 
	C291.739166,348.363403 291.739166,369.374969 291.739166,390.615021 
	C288.607605,390.615021 285.666779,390.615021 281.937469,390.615021 
	C281.937469,377.260742 281.937469,363.880371 281.937622,350.000000 
z"/>
<path fill="#2A3B4C" opacity="1.000000" stroke="none" 
	d="
M78.686096,341.998230 
	C78.734489,346.364349 78.782890,350.730499 78.734070,355.553162 
	C77.757996,357.462219 76.194107,358.888733 76.137856,360.372437 
	C76.006409,363.839355 75.349503,365.786957 71.238136,366.184540 
	C66.091866,366.682190 63.137245,370.138123 63.536266,374.710175 
	C67.127083,373.973053 70.625763,373.254883 74.871582,372.383331 
	C76.589241,374.623596 77.447044,379.198578 74.776878,380.675079 
	C72.106514,382.151611 67.617844,380.339722 63.305374,379.907043 
	C62.659874,380.605682 61.112320,382.280670 59.191376,383.974915 
	C58.745823,370.967102 58.673668,357.940063 59.126545,344.474487 
	C63.338814,343.661499 67.027420,343.299866 70.712830,342.908234 
	C73.372780,342.625580 76.028496,342.303009 78.686096,341.998230 
z"/>
<path fill="#F3F4F4" opacity="1.000000" stroke="none" 
	d="
M313.814270,51.551392 
	C313.914551,65.611183 313.914551,79.219856 313.914551,92.932404 
	C309.968506,92.932404 306.841125,92.932404 303.093201,92.932404 
	C303.093201,75.165970 303.093201,57.578289 303.125977,39.526993 
	C304.506226,39.033661 305.853638,39.003952 307.967468,38.995243 
	C309.490082,38.969284 310.246368,38.922321 311.002625,38.875359 
	C311.828003,39.984741 313.200317,41.016850 313.370148,42.218853 
	C313.782471,45.137268 313.635590,48.134689 313.814270,51.551392 
z"/>
<path fill="#F9F9F9" opacity="1.000000" stroke="none" 
	d="
M292.269531,89.982307 
	C292.178284,90.709389 292.087036,91.436462 291.980164,92.531868 
	C289.601410,92.947075 287.238312,92.993965 284.189362,93.051025 
	C283.334290,93.102997 283.165039,93.144775 282.995850,93.186562 
	C282.667908,89.196800 282.197510,85.212341 282.048920,81.215919 
	C281.872040,76.458572 281.971405,71.690956 281.953674,66.005692 
	C282.009094,56.403500 282.061951,47.723415 282.114777,39.043327 
	C284.604126,39.058788 287.114258,38.896027 289.571960,39.182755 
	C290.478149,39.288471 291.260681,40.453991 292.106384,42.019501 
	C292.165283,58.596020 292.217407,74.289162 292.269531,89.982307 
z"/>
<path fill="#F3F4F4" opacity="1.000000" stroke="none" 
	d="
M313.359558,180.749481 
	C313.674896,195.710266 313.712891,210.397552 313.863647,225.541626 
	C310.551971,226.499908 307.127594,227.001389 302.975861,227.609390 
	C302.975861,224.096481 302.975861,221.500854 302.981262,217.993530 
	C302.939178,207.052658 302.891754,197.023453 302.844330,186.994263 
	C302.963104,185.068359 303.081879,183.142456 303.246338,180.475983 
	C306.524597,180.475983 309.803436,180.475983 313.359558,180.749481 
z"/>
<path fill="#2B3D4E" opacity="1.000000" stroke="none" 
	d="
M120.688965,241.006088 
	C120.268524,228.979477 120.211784,216.948639 120.606209,204.458557 
	C121.220787,204.006180 121.424889,203.951523 121.541748,204.028793 
	C125.701233,206.779633 129.850677,208.390198 133.991547,203.999725 
	C134.057953,215.694366 134.124359,227.388992 134.086700,239.542343 
	C133.037186,239.776840 131.722855,239.871307 131.207916,239.275223 
	C128.451981,236.084915 126.371071,236.786621 124.159843,239.906845 
	C123.641403,240.638428 122.115219,240.655853 120.688965,241.006088 
z"/>
<path fill="#F9F9F9" opacity="1.000000" stroke="none" 
	d="
M292.354797,212.014160 
	C292.354797,216.807251 292.354797,221.600342 292.354797,226.710861 
	C288.848328,226.710861 285.783539,226.710861 282.350677,226.710861 
	C282.350677,211.550140 282.350677,196.374481 282.350677,180.671631 
	C285.372711,180.671631 288.301178,180.671631 291.665222,181.222107 
	C292.167328,182.850708 292.233856,183.928818 292.213806,185.467712 
	C292.202026,192.282959 292.276886,198.637451 292.259766,205.423462 
	C292.230133,207.908066 292.292480,209.961105 292.354797,212.014160 
z"/>
<path fill="#2D3D4D" opacity="1.000000" stroke="none" 
	d="
M314.309937,368.983459 
	C313.833923,360.971649 313.728088,352.945587 313.736267,344.463196 
	C315.392975,344.465454 316.935669,344.924042 318.684814,345.444000 
	C319.829193,344.046906 321.028534,342.582733 323.262543,339.855347 
	C324.006012,343.768341 324.365479,346.419373 325.054260,348.981934 
	C325.427246,350.369629 326.361755,351.606445 327.422852,352.952393 
	C327.818359,364.026245 327.833984,375.059052 327.751892,386.552338 
	C320.643097,386.874084 319.759796,385.761200 320.798859,378.711212 
	C321.037903,377.089203 321.023865,375.412109 320.960144,373.766785 
	C320.802338,369.691254 319.080048,367.547638 314.309937,368.983459 
z"/>
<path fill="#2D3D4D" opacity="1.000000" stroke="none" 
	d="
M396.991943,85.082893 
	C389.644379,72.139694 380.552551,61.028828 368.150024,52.364681 
	C367.990417,49.619820 369.212250,48.424461 371.408936,49.746998 
	C373.752930,51.158241 376.142426,52.822327 377.829132,54.924099 
	C380.760498,58.576843 383.584839,61.361233 388.901855,61.150356 
	C394.703857,60.920246 398.142212,64.090111 399.685669,69.651009 
	C400.397308,72.214981 401.214691,74.784248 401.558929,77.406921 
	C402.006195,80.814636 401.948914,84.233162 396.991943,85.082893 
z"/>
<path fill="#2D3D4D" opacity="1.000000" stroke="none" 
	d="
M292.656830,212.140503 
	C292.292480,209.961105 292.230133,207.908066 292.572418,205.272339 
	C293.434784,203.167038 293.434875,201.186722 294.425079,200.196564 
	C300.556549,194.065201 293.343964,189.996368 292.300415,185.006943 
	C292.233856,183.928818 292.167328,182.850708 292.117401,181.365738 
	C293.254181,180.860336 294.437012,180.958450 295.482574,180.625565 
	C298.390350,179.699905 299.653870,180.714676 300.074677,183.676483 
	C300.238831,184.831558 301.395416,185.845627 302.472168,186.959106 
	C302.891754,197.023453 302.939178,207.052658 302.900330,217.543915 
	C299.528992,216.092926 296.243927,214.179886 292.656830,212.140503 
z"/>
<path fill="#2A3B4C" opacity="1.000000" stroke="none" 
	d="
M26.524014,390.062927 
	C28.196558,390.332581 29.545156,390.951935 30.894167,390.952820 
	C39.912960,390.958832 48.931835,390.833038 58.337582,390.496948 
	C59.207783,397.238434 58.190472,398.112396 50.919579,398.517090 
	C48.399910,398.657288 45.811832,399.656921 43.485516,400.753174 
	C38.444279,403.128876 25.924477,399.177704 23.977324,394.070831 
	C23.633688,393.169586 25.405401,391.461823 26.524014,390.062927 
z"/>
<path fill="#2B3C4D" opacity="1.000000" stroke="none" 
	d="
M281.760437,38.974693 
	C282.061951,47.723415 282.009094,56.403500 281.865295,65.544846 
	C278.505402,65.008240 275.236420,64.010361 271.593445,63.009186 
	C271.160431,59.966732 271.101471,56.927570 271.431519,53.334026 
	C271.621613,51.521297 271.422699,50.262955 271.223785,49.004608 
	C271.160339,46.299210 271.096863,43.593807 271.103088,40.441833 
	C272.121674,39.760658 273.437683,39.841667 273.957001,39.237679 
	C276.410919,36.383751 278.858643,37.399994 281.760437,38.974693 
z"/>
<path fill="#2B3C4D" opacity="1.000000" stroke="none" 
	d="
M196.807556,73.030510 
	C197.280548,78.015724 197.369476,83.023140 197.331451,88.477753 
	C195.377106,87.611923 193.549713,86.298882 191.540634,84.855293 
	C188.925888,87.016235 185.913925,89.505432 182.537872,91.999489 
	C182.117416,83.641945 182.061035,75.279549 182.098267,66.456444 
	C183.484619,67.738174 184.949402,69.380913 186.030212,71.246147 
	C187.703156,74.133324 189.113922,77.172401 190.854080,80.573578 
	C193.163605,77.454826 194.793549,75.253761 196.807556,73.030510 
z"/>
<path fill="#2B3D4E" opacity="1.000000" stroke="none" 
	d="
M120.295364,118.004440 
	C120.229485,115.954742 120.163612,113.905052 120.184883,111.423340 
	C124.500664,111.040642 129.042252,111.882492 130.755020,106.208466 
	C130.933746,105.616371 132.409836,105.415909 133.658173,105.017380 
	C134.102783,109.697243 134.173187,114.393478 133.864899,119.602280 
	C133.661285,120.743378 133.836365,121.371902 134.011444,122.000435 
	C134.070053,124.377312 134.128677,126.754181 133.699417,129.532944 
	C132.137299,127.088943 131.214600,124.171516 129.920029,121.429649 
	C129.338760,120.198540 128.170685,118.719177 126.991814,118.410431 
	C124.869766,117.854691 122.538963,118.096069 120.295364,118.004440 
z"/>
<path fill="#2B3C4D" opacity="1.000000" stroke="none" 
	d="
M182.565552,131.003143 
	C182.108627,123.975822 182.044601,116.947411 182.069366,109.457565 
	C186.862854,109.214119 190.273285,112.630943 189.828979,117.568970 
	C189.492981,121.303261 188.422195,125.050804 187.093063,128.571457 
	C186.653427,129.735992 184.388718,130.211502 182.565552,131.003143 
z"/>
<path fill="#2B3C4D" opacity="1.000000" stroke="none" 
	d="
M252.641678,39.006073 
	C252.962265,42.382355 252.878571,45.748116 252.695099,49.563007 
	C248.171341,46.934742 245.000214,51.740246 240.660004,51.787422 
	C240.185715,48.208652 240.132935,44.684475 240.168152,40.729568 
	C244.249893,39.864410 248.243652,39.429977 252.641678,39.006073 
z"/>
<path fill="#2D3D4D" opacity="1.000000" stroke="none" 
	d="
M149.672638,312.007141 
	C149.178345,307.973694 149.115250,303.939209 149.142075,299.448425 
	C152.606659,299.428925 156.665359,297.568451 158.822693,302.020691 
	C161.524567,307.596741 158.831787,311.948395 152.571564,311.999084 
	C151.749023,312.005737 150.926422,312.003967 149.672638,312.007141 
z"/>
<path fill="#314253" opacity="1.000000" stroke="none" 
	d="
M265.317871,227.615295 
	C267.162231,227.066666 268.937256,226.927673 271.016174,226.764877 
	C271.016174,223.974106 271.016174,221.343018 271.109467,218.349640 
	C273.411591,218.610794 277.405914,219.031204 277.504120,219.894669 
	C277.836945,222.821381 277.679932,226.612000 276.005646,228.716522 
	C274.525879,230.576523 270.806244,230.909454 267.991455,231.283127 
	C267.234650,231.383575 266.171204,229.174072 265.317871,227.615295 
z"/>
<path fill="#1D3043" opacity="1.000000" stroke="none" 
	d="
M292.610565,89.812546 
	C292.217407,74.289162 292.165283,58.596020 292.202057,42.440201 
	C292.712555,41.722473 293.134155,41.467415 293.777893,41.105797 
	C293.999146,55.492691 294.033112,69.986343 293.951385,84.479340 
	C293.941681,86.202309 293.300201,87.921722 292.610565,89.812546 
z"/>
<path fill="#2B3C4D" opacity="1.000000" stroke="none" 
	d="
M196.973007,101.164474 
	C197.313705,109.416763 197.390167,117.851257 197.333008,126.674782 
	C196.143539,125.771667 194.259918,124.530548 194.176605,123.178482 
	C193.834885,117.632957 193.832474,112.040970 194.168488,106.494148 
	C194.275162,104.733482 195.821335,103.060036 196.973007,101.164474 
z"/>
<path fill="#2B3C4D" opacity="1.000000" stroke="none" 
	d="
M240.586243,158.842041 
	C240.194519,144.308731 240.149826,129.611832 240.196930,114.453773 
	C240.854904,115.073250 241.904266,116.149757 241.913574,117.235191 
	C242.024506,130.165039 242.001099,143.096344 241.932541,156.026825 
	C241.927841,156.912460 241.281326,157.794662 240.586243,158.842041 
z"/>
<path fill="#2A3B4C" opacity="1.000000" stroke="none" 
	d="
M59.221603,79.978683 
	C58.786957,75.965599 58.720570,71.935280 58.767685,67.453819 
	C61.754406,68.155647 64.765541,69.074974 67.401009,70.630707 
	C68.036514,71.005852 68.047066,74.184319 67.275444,74.869980 
	C65.001244,76.890839 62.190575,78.308006 59.221603,79.978683 
z"/>
<path fill="#2B3C4D" opacity="1.000000" stroke="none" 
	d="
M252.255707,54.173389 
	C252.665390,66.022575 252.747070,78.055916 252.731720,90.549591 
	C252.094208,89.917709 251.096405,88.830475 251.084412,87.732468 
	C250.970963,77.345940 251.007156,66.957474 251.069916,56.569973 
	C251.074371,55.830795 251.628922,55.094940 252.255707,54.173389 
z"/>
<path fill="#2B3C4D" opacity="1.000000" stroke="none" 
	d="
M163.032837,391.680725 
	C168.981750,391.346466 175.054153,391.360931 181.577148,391.228638 
	C181.191803,392.235321 180.253586,394.444061 179.536270,394.374512 
	C174.052063,393.842743 168.610901,392.867096 163.032837,391.680725 
z"/>
<path fill="#2B3C4D" opacity="1.000000" stroke="none" 
	d="
M196.927063,140.891983 
	C197.271393,143.437378 197.346176,145.789474 197.296204,148.567642 
	C194.297668,147.878326 192.655518,142.242203 194.656525,140.026642 
	C194.844742,139.818237 195.968231,140.454559 196.927063,140.891983 
z"/>
<path fill="#2B3C4D" opacity="1.000000" stroke="none" 
	d="
M240.569016,85.845222 
	C240.167938,81.972237 240.113144,77.939507 240.147614,73.450539 
	C243.324921,77.071701 242.276245,81.370247 240.569016,85.845222 
z"/>
<path fill="#2B3C4D" opacity="1.000000" stroke="none" 
	d="
M240.564331,296.847229 
	C240.162460,293.303589 240.105560,289.602203 240.141464,285.447632 
	C243.420547,288.721832 242.319016,292.696747 240.564331,296.847229 
z"/>
<path fill="#2B3C4D" opacity="1.000000" stroke="none" 
	d="
M240.596680,203.848618 
	C240.196793,200.967087 240.133118,197.927963 240.159180,194.441376 
	C243.321976,197.025589 242.284088,200.347260 240.596680,203.848618 
z"/>
<path fill="#2A3B4C" opacity="1.000000" stroke="none" 
	d="
M71.184570,434.591492 
	C71.132500,433.163025 71.405037,431.845581 71.677582,430.528168 
	C72.313057,430.910461 72.948532,431.292755 73.584015,431.675049 
	C72.892410,432.684204 72.200798,433.693359 71.184570,434.591492 
z"/>
<path fill="#2B3C4D" opacity="1.000000" stroke="none" 
	d="
M254.220154,93.704025 
	C255.202408,93.210724 256.129639,93.140244 257.397339,93.155144 
	C257.089203,94.688637 256.440552,96.136757 255.791870,97.584869 
	C255.249634,96.432198 254.707397,95.279518 254.220154,93.704025 
z"/>
<path fill="#2B3C4D" opacity="1.000000" stroke="none" 
	d="
M347.598114,126.641479 
	C348.261139,128.029694 348.642670,129.717972 348.928345,131.704559 
	C345.586945,131.136475 345.701569,129.263702 347.598114,126.641479 
z"/>
<path fill="#2B3C4D" opacity="1.000000" stroke="none" 
	d="
M162.909485,39.159241 
	C163.178146,40.469051 163.094025,41.836842 162.909851,43.604237 
	C160.300354,42.536522 160.216629,40.940948 162.909485,39.159241 
z"/>
<path fill="#2B3C4D" opacity="1.000000" stroke="none" 
	d="
M151.406403,36.179535 
	C150.659042,35.989624 150.105515,35.596317 149.552002,35.203007 
	C149.862030,34.908203 150.172073,34.613400 150.482117,34.318604 
	C150.854828,34.871117 151.227539,35.423626 151.406403,36.179535 
z"/>
<path fill="#2B3C4D" opacity="1.000000" stroke="none" 
	d="
M310.921021,38.582802 
	C310.246368,38.922321 309.490082,38.969284 308.364990,38.919529 
	C308.943909,38.645290 309.891632,38.467770 310.921021,38.582802 
z"/>
<path fill="#2B3C4D" opacity="1.000000" stroke="none" 
	d="
M195.350342,135.716827 
	C195.219421,136.005890 194.964447,136.162445 194.709473,136.319000 
	C194.881744,136.074097 195.054016,135.829208 195.350342,135.716827 
z"/>
<path fill="#2B3C4D" opacity="1.000000" stroke="none" 
	d="
M283.023743,93.381271 
	C283.165039,93.144775 283.334290,93.102997 283.754120,93.135986 
	C283.687012,93.332504 283.369354,93.454247 283.023743,93.381271 
z"/>
<path fill="#2D3D4D" opacity="1.000000" stroke="none" 
	d="
M341.119415,109.656754 
	C335.306641,109.320435 330.678650,107.181015 330.162445,99.935272 
	C333.776733,102.796875 337.400696,106.056152 341.119415,109.656754 
z"/>
<path fill="#273849" opacity="1.000000" stroke="none" 
	d="
M58.736877,139.454193 
	C63.507847,136.419479 67.719398,138.261597 72.196175,139.860764 
	C73.721519,140.405609 76.042557,138.722946 78.334549,138.029938 
	C78.743774,157.101273 78.858307,176.200699 78.883087,195.300247 
	C78.914131,219.223892 78.871468,243.147644 78.403984,267.488342 
	C77.292519,266.603363 76.726524,265.245972 75.959061,264.014160 
	C75.110641,262.652405 74.072464,260.290375 73.125977,260.294830 
	C68.047890,260.318634 63.238396,259.721680 58.843746,257.004120 
	C58.764702,255.605911 58.685654,254.207687 59.131863,252.369995 
	C62.380474,249.762756 63.141792,240.660294 60.712395,238.420105 
	C60.304230,238.043732 59.467800,238.131805 58.829250,238.005280 
	C58.755943,234.632980 58.682632,231.260681 59.105743,227.421890 
	C65.648895,223.697556 68.589951,225.856201 74.083244,231.120422 
	C74.734749,229.432907 75.488373,228.021790 75.827095,226.517242 
	C78.330437,215.397751 69.883461,201.930954 61.728619,196.595459 
	C60.967442,196.097427 59.821678,196.187195 58.854477,196.004059 
	C58.777973,194.606094 58.701469,193.208115 59.118156,191.383301 
	C64.098595,189.084778 63.947113,185.524750 63.308281,181.536362 
	C62.856731,178.717224 61.786930,174.176315 63.085358,173.207214 
	C69.302757,168.566681 66.091553,164.893799 62.754910,161.033508 
	C61.698845,159.811722 60.165642,159.002335 58.850800,158.004227 
	C58.775555,151.973206 58.700317,145.942184 58.736877,139.454193 
z"/>
<path fill="#273849" opacity="1.000000" stroke="none" 
	d="
M78.777100,341.537598 
	C76.028496,342.303009 73.372780,342.625580 70.712830,342.908234 
	C67.027420,343.299866 63.338814,343.661499 59.247288,344.019348 
	C58.759937,323.971130 58.676880,303.939484 59.093170,283.430237 
	C61.506180,281.652283 63.366657,279.355682 65.344093,279.250153 
	C70.074951,278.997589 74.666214,278.922913 78.682343,276.007324 
	C78.744263,297.697205 78.806183,319.387085 78.777100,341.537598 
z"/>
<path fill="#2A3B4C" opacity="1.000000" stroke="none" 
	d="
M58.741325,196.460678 
	C59.821678,196.187195 60.967442,196.097427 61.728619,196.595459 
	C69.883461,201.930954 78.330437,215.397751 75.827095,226.517242 
	C75.488373,228.021790 74.734749,229.432907 74.083244,231.120422 
	C68.589951,225.856201 65.648895,223.697556 59.220543,226.975327 
	C58.768677,216.969269 58.698421,206.943283 58.741325,196.460678 
z"/>
<path fill="#2A3B4C" opacity="1.000000" stroke="none" 
	d="
M78.778297,275.570374 
	C74.666214,278.922913 70.074951,278.997589 65.344093,279.250153 
	C63.366657,279.355682 61.506180,281.652283 59.209545,282.973633 
	C58.754875,274.635132 58.683182,266.275604 58.727615,257.460114 
	C63.238396,259.721680 68.047890,260.318634 73.125977,260.294830 
	C74.072464,260.290375 75.110641,262.652405 75.959061,264.014160 
	C76.726524,265.245972 77.292519,266.603363 78.315201,267.948914 
	C78.746796,270.372772 78.810524,272.753082 78.778297,275.570374 
z"/>
<path fill="#2A3B4C" opacity="1.000000" stroke="none" 
	d="
M58.737144,158.460724 
	C60.165642,159.002335 61.698845,159.811722 62.754910,161.033508 
	C66.091553,164.893799 69.302757,168.566681 63.085358,173.207214 
	C61.786930,174.176315 62.856731,178.717224 63.308281,181.536362 
	C63.947113,185.524750 64.098595,189.084778 59.231865,190.976196 
	C58.776089,180.303009 58.699787,169.610123 58.737144,158.460724 
z"/>
<path fill="#2A3B4C" opacity="1.000000" stroke="none" 
	d="
M58.710251,238.456573 
	C59.467800,238.131805 60.304230,238.043732 60.712395,238.420105 
	C63.141792,240.660294 62.380474,249.762756 59.246155,251.962799 
	C58.753876,247.632706 58.672562,243.270294 58.710251,238.456573 
z"/>
<path fill="#273849" opacity="1.000000" stroke="none" 
	d="
M120.213593,118.466064 
	C122.538963,118.096069 124.869766,117.854691 126.991814,118.410431 
	C128.170685,118.719177 129.338760,120.198540 129.920029,121.429649 
	C131.214600,124.171516 132.137299,127.088943 133.596741,129.967926 
	C134.066406,131.720535 134.150909,133.440048 133.760040,135.603790 
	C132.401550,136.672470 130.795898,137.246567 130.748276,137.929306 
	C130.322952,144.027985 129.994568,150.149704 130.127747,156.253952 
	C130.148315,157.197144 132.657135,158.086075 134.015259,159.000092 
	C134.074707,173.693848 134.134155,188.387604 134.092575,203.540543 
	C129.850677,208.390198 125.701233,206.779633 121.541748,204.028793 
	C121.424889,203.951523 121.220787,204.006180 120.695969,203.997375 
	C120.274155,188.974686 120.213737,173.953934 120.604164,158.467621 
	C122.920876,156.460220 126.262856,155.026962 126.385750,153.356827 
	C126.815926,147.510712 126.135834,141.582886 125.860001,135.287994 
	C123.019043,136.157486 121.657730,136.574127 120.296425,136.990753 
	C120.241554,130.969742 120.186684,124.948708 120.213593,118.466064 
M124.311577,125.795265 
	C123.991646,126.475266 123.665573,127.152794 123.386124,127.849045 
	C123.378899,127.867020 123.882050,128.089844 124.147194,128.217133 
	C124.329155,127.542755 124.511124,126.868378 124.311577,125.795265 
z"/>
<path fill="#2B3D4E" opacity="1.000000" stroke="none" 
	d="
M134.121643,158.541931 
	C132.657135,158.086075 130.148315,157.197144 130.127747,156.253952 
	C129.994568,150.149704 130.322952,144.027985 130.748276,137.929306 
	C130.795898,137.246567 132.401550,136.672470 133.663177,136.024628 
	C134.103775,143.362091 134.165894,150.722931 134.121643,158.541931 
z"/>
<path fill="#273849" opacity="1.000000" stroke="none" 
	d="
M134.112808,121.672302 
	C133.836365,121.371902 133.661285,120.743378 133.753876,120.056953 
	C134.085754,120.447433 134.149963,120.895798 134.112808,121.672302 
z"/>
<path fill="#2B3D4E" opacity="1.000000" stroke="none" 
	d="
M120.205986,137.452103 
	C121.657730,136.574127 123.019043,136.157486 125.860001,135.287994 
	C126.135834,141.582886 126.815926,147.510712 126.385750,153.356827 
	C126.262856,155.026962 122.920876,156.460220 120.687012,158.006256 
	C120.251205,151.311417 120.183372,144.612442 120.205986,137.452103 
z"/>
<path fill="#273849" opacity="1.000000" stroke="none" 
	d="
M271.136353,49.397976 
	C271.422699,50.262955 271.621613,51.521297 271.523956,52.887238 
	C271.167908,51.927002 271.108429,50.859173 271.136353,49.397976 
z"/>
<path fill="#273849" opacity="1.000000" stroke="none" 
	d="
M292.213806,185.467712 
	C293.343964,189.996368 300.556549,194.065201 294.425079,200.196564 
	C293.434875,201.186722 293.434784,203.167038 292.664368,204.840790 
	C292.276886,198.637451 292.202026,192.282959 292.213806,185.467712 
z"/>
<path fill="#2B3D4E" opacity="1.000000" stroke="none" 
	d="
M124.502335,125.994629 
	C124.511124,126.868378 124.329155,127.542755 124.147186,128.217133 
	C123.882050,128.089844 123.378899,127.867020 123.386124,127.849045 
	C123.665573,127.152794 123.991646,126.475266 124.502335,125.994629 
z"/>
</svg>